<?xml version="1.0" encoding="UTF-8" standalone="no"?>
<!DOCTYPE svg PUBLIC "-//W3C//DTD SVG 1.1//EN"
 "http://www.w3.org/Graphics/SVG/1.1/DTD/svg11.dtd">
<!-- Generated by graphviz version 2.38.0 (20140413.2041)
 -->
<!-- Title: G Pages: 1 -->
<svg width="837pt" height="1036pt"
 viewBox="0.00 0.00 837.49 1036.36" xmlns="http://www.w3.org/2000/svg" xmlns:xlink="http://www.w3.org/1999/xlink">
<g id="graph0" class="graph" transform="scale(1 1) rotate(0) translate(4 1032.36)">
<title>G</title>
<polygon fill="white" stroke="none" points="-4,4 -4,-1032.36 833.486,-1032.36 833.486,4 -4,4"/>
<g id="clust1" class="cluster"><title>cluster_Global</title>
<path fill="none" stroke="gray" d="M230.486,-76.3619C230.486,-76.3619 809.486,-76.3619 809.486,-76.3619 815.486,-76.3619 821.486,-82.3619 821.486,-88.3619 821.486,-88.3619 821.486,-1008.36 821.486,-1008.36 821.486,-1014.36 815.486,-1020.36 809.486,-1020.36 809.486,-1020.36 230.486,-1020.36 230.486,-1020.36 224.486,-1020.36 218.486,-1014.36 218.486,-1008.36 218.486,-1008.36 218.486,-88.3619 218.486,-88.3619 218.486,-82.3619 224.486,-76.3619 230.486,-76.3619"/>
<text text-anchor="middle" x="519.986" y="-1007.56" font-family="Times New Roman,serif" font-size="11.00" fill="gray">Global</text>
</g>
<g id="clust2" class="cluster"><title>cluster_\wow_ah_bot</title>
<path fill="none" stroke="gray" d="M441.486,-84.3619C441.486,-84.3619 801.486,-84.3619 801.486,-84.3619 807.486,-84.3619 813.486,-90.3619 813.486,-96.3619 813.486,-96.3619 813.486,-414.362 813.486,-414.362 813.486,-420.362 807.486,-426.362 801.486,-426.362 801.486,-426.362 441.486,-426.362 441.486,-426.362 435.486,-426.362 429.486,-420.362 429.486,-414.362 429.486,-414.362 429.486,-96.3619 429.486,-96.3619 429.486,-90.3619 435.486,-84.3619 441.486,-84.3619"/>
<text text-anchor="middle" x="621.486" y="-413.562" font-family="Times New Roman,serif" font-size="11.00" fill="gray">wow_ah_bot</text>
</g>
<g id="clust3" class="cluster"><title>cluster_\wow_ah</title>
<path fill="none" stroke="gray" d="M238.486,-434.362C238.486,-434.362 561.486,-434.362 561.486,-434.362 567.486,-434.362 573.486,-440.362 573.486,-446.362 573.486,-446.362 573.486,-980.362 573.486,-980.362 573.486,-986.362 567.486,-992.362 561.486,-992.362 561.486,-992.362 238.486,-992.362 238.486,-992.362 232.486,-992.362 226.486,-986.362 226.486,-980.362 226.486,-980.362 226.486,-446.362 226.486,-446.362 226.486,-440.362 232.486,-434.362 238.486,-434.362"/>
<text text-anchor="middle" x="399.986" y="-979.562" font-family="Times New Roman,serif" font-size="11.00" fill="gray">wow_ah</text>
</g>
<!-- \\wow_ah_bot\\wow_ah_bot -->
<g id="node1" class="node"><title>\\wow_ah_bot\\wow_ah_bot</title>
<polygon fill="none" stroke="black" points="764.986,-398.362 680.986,-398.362 680.986,-362.362 764.986,-362.362 764.986,-398.362"/>
<text text-anchor="middle" x="722.986" y="-377.562" font-family="Courier,monospace" font-size="11.00">wow_ah_bot</text>
</g>
<!-- \\wow_ah_bot\\object_from_array -->
<g id="node2" class="node"><title>\\wow_ah_bot\\object_from_array</title>
<polygon fill="none" stroke="black" points="568.486,-182.362 437.486,-182.362 437.486,-146.362 568.486,-146.362 568.486,-182.362"/>
<text text-anchor="middle" x="502.986" y="-161.562" font-family="Courier,monospace" font-size="11.00">object_from_array</text>
</g>
<!-- \\object_from_array -->
<g id="node19" class="node"><title>\\object_from_array</title>
<ellipse fill="none" stroke="black" cx="81.2428" cy="-340.362" rx="81.4863" ry="18"/>
<text text-anchor="middle" x="81.2428" y="-336.662" font-family="Times New Roman,serif" font-size="14.00" fill="gray">\object_from_array</text>
</g>
<!-- \\wow_ah_bot\\object_from_array&#45;&gt;\\object_from_array -->
<g id="edge1" class="edge"><title>\\wow_ah_bot\\object_from_array&#45;&gt;\\object_from_array</title>
<path fill="none" stroke="black" d="M491.331,-146.115C471.409,-114.054 425.09,-48.6188 365.486,-23.3619 305.33,2.12859 273.047,12.5755 218.486,-23.3619 117.994,-89.5516 91.3221,-247.051 84.4952,-311.807"/>
<polygon fill="none" stroke="black" points="80.9807,-311.788 83.4991,-322.079 87.948,-312.463 80.9807,-311.788"/>
</g>
<!-- \\wow_ah_bot\\config -->
<g id="node3" class="node"><title>\\wow_ah_bot\\config</title>
<polygon fill="none" stroke="black" points="751.486,-290.362 694.486,-290.362 694.486,-254.362 751.486,-254.362 751.486,-290.362"/>
<text text-anchor="middle" x="722.986" y="-269.562" font-family="Courier,monospace" font-size="11.00">config</text>
</g>
<!-- \\wow_ah_bot\\config&#45;&gt;\\wow_ah_bot\\object_from_array -->
<g id="edge2" class="edge"><title>\\wow_ah_bot\\config&#45;&gt;\\wow_ah_bot\\object_from_array</title>
<path fill="none" stroke="black" d="M694.256,-264.798C678.221,-260.026 657.846,-253.276 640.486,-245.362 604.555,-228.982 566.079,-205.559 539.166,-188.111"/>
<polygon fill="none" stroke="black" points="540.786,-184.989 530.502,-182.442 536.953,-190.846 540.786,-184.989"/>
</g>
<!-- \\wow_ah_bot\\search -->
<g id="node4" class="node"><title>\\wow_ah_bot\\search</title>
<polygon fill="none" stroke="black" points="751.486,-236.362 694.486,-236.362 694.486,-200.362 751.486,-200.362 751.486,-236.362"/>
<text text-anchor="middle" x="722.986" y="-215.562" font-family="Courier,monospace" font-size="11.00">search</text>
</g>
<!-- \\wow_ah_bot\\search&#45;&gt;\\wow_ah_bot\\object_from_array -->
<g id="edge3" class="edge"><title>\\wow_ah_bot\\search&#45;&gt;\\wow_ah_bot\\object_from_array</title>
<path fill="none" stroke="black" d="M694.376,-211.523C665.374,-204.339 618.513,-192.731 578.54,-182.83"/>
<polygon fill="none" stroke="black" points="579.355,-179.426 568.807,-180.419 577.672,-186.22 579.355,-179.426"/>
</g>
<!-- \\wow_ah_bot\\notification -->
<g id="node5" class="node"><title>\\wow_ah_bot\\notification</title>
<polygon fill="none" stroke="black" points="771.986,-182.362 673.986,-182.362 673.986,-146.362 771.986,-146.362 771.986,-182.362"/>
<text text-anchor="middle" x="722.986" y="-161.562" font-family="Courier,monospace" font-size="11.00">notification</text>
</g>
<!-- \\wow_ah_bot\\notification&#45;&gt;\\wow_ah_bot\\object_from_array -->
<g id="edge4" class="edge"><title>\\wow_ah_bot\\notification&#45;&gt;\\wow_ah_bot\\object_from_array</title>
<path fill="none" stroke="black" d="M673.875,-164.362C645.928,-164.362 610.12,-164.362 578.589,-164.362"/>
<polygon fill="none" stroke="black" points="578.518,-160.862 568.518,-164.362 578.518,-167.862 578.518,-160.862"/>
</g>
<!-- \\wow_ah_bot\\notification_recipient -->
<g id="node6" class="node"><title>\\wow_ah_bot\\notification_recipient</title>
<polygon fill="none" stroke="black" points="805.486,-128.362 640.486,-128.362 640.486,-92.3619 805.486,-92.3619 805.486,-128.362"/>
<text text-anchor="middle" x="722.986" y="-107.562" font-family="Courier,monospace" font-size="11.00">notification_recipient</text>
</g>
<!-- \\wow_ah_bot\\notification_recipient&#45;&gt;\\wow_ah_bot\\object_from_array -->
<g id="edge5" class="edge"><title>\\wow_ah_bot\\notification_recipient&#45;&gt;\\wow_ah_bot\\object_from_array</title>
<path fill="none" stroke="black" d="M649.092,-128.418C626.449,-134.027 601.463,-140.216 578.699,-145.855"/>
<polygon fill="none" stroke="black" points="577.618,-142.517 568.753,-148.319 579.301,-149.311 577.618,-142.517"/>
</g>
<!-- \\wow_ah_bot\\Exception -->
<g id="node7" class="node"><title>\\wow_ah_bot\\Exception</title>
<polygon fill="none" stroke="black" points="761.486,-344.362 684.486,-344.362 684.486,-308.362 761.486,-308.362 761.486,-344.362"/>
<text text-anchor="middle" x="722.986" y="-323.562" font-family="Courier,monospace" font-size="11.00">Exception</text>
</g>
<!-- \\wow_ah\\Exception -->
<g id="node18" class="node"><title>\\wow_ah\\Exception</title>
<polygon fill="none" stroke="black" points="541.486,-478.362 464.486,-478.362 464.486,-442.362 541.486,-442.362 541.486,-478.362"/>
<text text-anchor="middle" x="502.986" y="-457.562" font-family="Courier,monospace" font-size="11.00">Exception</text>
</g>
<!-- \\wow_ah_bot\\Exception&#45;&gt;\\wow_ah\\Exception -->
<g id="edge6" class="edge"><title>\\wow_ah_bot\\Exception&#45;&gt;\\wow_ah\\Exception</title>
<path fill="none" stroke="black" d="M684.38,-334.291C669.871,-338.473 653.638,-344.607 640.486,-353.362 602.723,-378.499 610.111,-403.595 573.486,-430.362 566.622,-435.378 558.789,-439.775 550.916,-443.545"/>
<polygon fill="none" stroke="black" points="549.396,-440.39 541.71,-447.682 552.266,-446.775 549.396,-440.39"/>
</g>
<!-- \\wow_ah\\wow_ah -->
<g id="node8" class="node"><title>\\wow_ah\\wow_ah</title>
<polygon fill="none" stroke="black" points="531.486,-964.362 474.486,-964.362 474.486,-928.362 531.486,-928.362 531.486,-964.362"/>
<text text-anchor="middle" x="502.986" y="-943.562" font-family="Courier,monospace" font-size="11.00">wow_ah</text>
</g>
<!-- \\wow_ah\\object_from_array -->
<g id="node9" class="node"><title>\\wow_ah\\object_from_array</title>
<polygon fill="none" stroke="black" points="365.486,-694.362 234.486,-694.362 234.486,-658.362 365.486,-658.362 365.486,-694.362"/>
<text text-anchor="middle" x="299.986" y="-673.562" font-family="Courier,monospace" font-size="11.00">object_from_array</text>
</g>
<!-- \\wow_ah\\object_from_array&#45;&gt;\\object_from_array -->
<g id="edge7" class="edge"><title>\\wow_ah\\object_from_array&#45;&gt;\\object_from_array</title>
<path fill="none" stroke="black" d="M287.333,-658.297C251.389,-602.577 142.111,-433.171 99.5079,-367.127"/>
<polygon fill="none" stroke="black" points="102.315,-365.022 93.9534,-358.516 96.433,-368.817 102.315,-365.022"/>
</g>
<!-- \\wow_ah\\http_transaction -->
<g id="node10" class="node"><title>\\wow_ah\\http_transaction</title>
<polygon fill="none" stroke="black" points="565.486,-532.362 440.486,-532.362 440.486,-496.362 565.486,-496.362 565.486,-532.362"/>
<text text-anchor="middle" x="502.986" y="-511.562" font-family="Courier,monospace" font-size="11.00">http_transaction</text>
</g>
<!-- \\wow_ah\\http_transaction&#45;&gt;\\wow_ah\\object_from_array -->
<g id="edge8" class="edge"><title>\\wow_ah\\http_transaction&#45;&gt;\\wow_ah\\object_from_array</title>
<path fill="none" stroke="black" d="M445.7,-532.368C440.042,-535.04 434.53,-538.033 429.486,-541.362 384.256,-571.207 343.212,-619.777 320.233,-649.801"/>
<polygon fill="none" stroke="black" points="317.191,-648.021 313.969,-658.114 322.782,-652.234 317.191,-648.021"/>
</g>
<!-- \\wow_ah\\search_result -->
<g id="node11" class="node"><title>\\wow_ah\\search_result</title>
<polygon fill="none" stroke="black" points="554.986,-910.362 450.986,-910.362 450.986,-874.362 554.986,-874.362 554.986,-910.362"/>
<text text-anchor="middle" x="502.986" y="-889.562" font-family="Courier,monospace" font-size="11.00">search_result</text>
</g>
<!-- \\wow_ah\\search_result&#45;&gt;\\wow_ah\\object_from_array -->
<g id="edge9" class="edge"><title>\\wow_ah\\search_result&#45;&gt;\\wow_ah\\object_from_array</title>
<path fill="none" stroke="black" d="M450.718,-877.862C443.178,-874.461 435.827,-870.335 429.486,-865.362 372.809,-820.911 331.898,-744.465 312.892,-703.752"/>
<polygon fill="none" stroke="black" points="315.981,-702.089 308.641,-694.448 309.614,-704.998 315.981,-702.089"/>
</g>
<!-- \\wow_ah\\browser_info -->
<g id="node12" class="node"><title>\\wow_ah\\browser_info</title>
<polygon fill="none" stroke="black" points="551.986,-856.362 453.986,-856.362 453.986,-820.362 551.986,-820.362 551.986,-856.362"/>
<text text-anchor="middle" x="502.986" y="-835.562" font-family="Courier,monospace" font-size="11.00">browser_info</text>
</g>
<!-- \\wow_ah\\browser_info&#45;&gt;\\wow_ah\\object_from_array -->
<g id="edge10" class="edge"><title>\\wow_ah\\browser_info&#45;&gt;\\wow_ah\\object_from_array</title>
<path fill="none" stroke="black" d="M453.685,-823.889C445.287,-820.404 436.885,-816.244 429.486,-811.362 384.256,-781.517 343.212,-732.947 320.233,-702.923"/>
<polygon fill="none" stroke="black" points="322.782,-700.49 313.969,-694.61 317.191,-704.703 322.782,-700.49"/>
</g>
<!-- \\wow_ah\\inventory_item -->
<g id="node13" class="node"><title>\\wow_ah\\inventory_item</title>
<polygon fill="none" stroke="black" points="558.486,-802.362 447.486,-802.362 447.486,-766.362 558.486,-766.362 558.486,-802.362"/>
<text text-anchor="middle" x="502.986" y="-781.562" font-family="Courier,monospace" font-size="11.00">inventory_item</text>
</g>
<!-- \\wow_ah\\inventory_item&#45;&gt;\\wow_ah\\object_from_array -->
<g id="edge11" class="edge"><title>\\wow_ah\\inventory_item&#45;&gt;\\wow_ah\\object_from_array</title>
<path fill="none" stroke="black" d="M449.557,-766.31C442.712,-763.526 435.866,-760.519 429.486,-757.362 395.868,-740.728 359.94,-717.575 334.646,-700.28"/>
<polygon fill="none" stroke="black" points="336.383,-697.226 326.164,-694.428 332.407,-702.988 336.383,-697.226"/>
</g>
<!-- \\wow_ah\\auctions -->
<g id="node14" class="node"><title>\\wow_ah\\auctions</title>
<polygon fill="none" stroke="black" points="538.486,-694.362 467.486,-694.362 467.486,-658.362 538.486,-658.362 538.486,-694.362"/>
<text text-anchor="middle" x="502.986" y="-673.562" font-family="Courier,monospace" font-size="11.00">auctions</text>
</g>
<!-- \\wow_ah\\active_auction -->
<g id="node15" class="node"><title>\\wow_ah\\active_auction</title>
<polygon fill="none" stroke="black" points="558.486,-748.362 447.486,-748.362 447.486,-712.362 558.486,-712.362 558.486,-748.362"/>
<text text-anchor="middle" x="502.986" y="-727.562" font-family="Courier,monospace" font-size="11.00">active_auction</text>
</g>
<!-- \\wow_ah\\active_auction&#45;&gt;\\wow_ah\\object_from_array -->
<g id="edge12" class="edge"><title>\\wow_ah\\active_auction&#45;&gt;\\wow_ah\\object_from_array</title>
<path fill="none" stroke="black" d="M447.327,-715.678C425.155,-709.721 399.196,-702.747 375.346,-696.339"/>
<polygon fill="none" stroke="black" points="376.19,-692.942 365.624,-693.728 374.374,-699.702 376.19,-692.942"/>
</g>
<!-- \\wow_ah\\sold_auction -->
<g id="node16" class="node"><title>\\wow_ah\\sold_auction</title>
<polygon fill="none" stroke="black" points="551.986,-640.362 453.986,-640.362 453.986,-604.362 551.986,-604.362 551.986,-640.362"/>
<text text-anchor="middle" x="502.986" y="-619.562" font-family="Courier,monospace" font-size="11.00">sold_auction</text>
</g>
<!-- \\wow_ah\\sold_auction&#45;&gt;\\wow_ah\\object_from_array -->
<g id="edge13" class="edge"><title>\\wow_ah\\sold_auction&#45;&gt;\\wow_ah\\object_from_array</title>
<path fill="none" stroke="black" d="M453.841,-635.296C430.464,-641.577 401.843,-649.266 375.714,-656.286"/>
<polygon fill="none" stroke="black" points="374.587,-652.964 365.838,-658.939 376.404,-659.724 374.587,-652.964"/>
</g>
<!-- \\wow_ah\\ended_auction -->
<g id="node17" class="node"><title>\\wow_ah\\ended_auction</title>
<polygon fill="none" stroke="black" points="554.986,-586.362 450.986,-586.362 450.986,-550.362 554.986,-550.362 554.986,-586.362"/>
<text text-anchor="middle" x="502.986" y="-565.562" font-family="Courier,monospace" font-size="11.00">ended_auction</text>
</g>
<!-- \\wow_ah\\ended_auction&#45;&gt;\\wow_ah\\object_from_array -->
<g id="edge14" class="edge"><title>\\wow_ah\\ended_auction&#45;&gt;\\wow_ah\\object_from_array</title>
<path fill="none" stroke="black" d="M450.719,-585.944C443.488,-588.858 436.227,-592.026 429.486,-595.362 395.868,-611.996 359.94,-635.149 334.646,-652.444"/>
<polygon fill="none" stroke="black" points="332.407,-649.736 326.164,-658.296 336.383,-655.498 332.407,-649.736"/>
</g>
<!-- \\Exception -->
<g id="node20" class="node"><title>\\Exception</title>
<ellipse fill="none" stroke="black" cx="299.986" cy="-50.3619" rx="50.0912" ry="18"/>
<text text-anchor="middle" x="299.986" y="-46.6619" font-family="Times New Roman,serif" font-size="14.00" fill="gray">\Exception</text>
</g>
<!-- \\wow_ah\\Exception&#45;&gt;\\Exception -->
<g id="edge15" class="edge"><title>\\wow_ah\\Exception&#45;&gt;\\Exception</title>
<path fill="none" stroke="black" d="M464.4,-451.598C451.892,-447.061 438.793,-440.308 429.486,-430.362 332.596,-326.831 308.542,-147.609 302.755,-78.5869"/>
<polygon fill="none" stroke="black" points="306.234,-78.1846 301.974,-68.4839 299.255,-78.7238 306.234,-78.1846"/>
</g>
</g>
</svg>
